<svg width="249" height="37" viewBox="0 0 249 37" fill="none" xmlns="http://www.w3.org/2000/svg">
<path d="M5.07315 37L0.705256 0.636363H9.10369L10.9503 25.9027H11.2521L22.0653 0.636363H29.2564L31.7067 25.956H32.0263L42.218 0.636363H50.6165L34.1747 37H26.6818L23.7344 13.2251H23.4503L12.5661 37H5.07315ZM51.3001 37H43.0614L61.6516 0.636363H71.5593L78.0579 37H69.8192L65.3981 8.94602H65.114L51.3001 37ZM53.1822 22.7067H72.6424L71.6126 28.7081H52.1523L53.1822 22.7067ZM82.4347 37L88.4716 0.636363H96.1598L91.1882 30.6612H106.778L105.712 37H82.4347Z" fill="#60874E" fill-opacity="0.85"/>
<path d="M110.413 37L111.194 32.4368L133.584 6.97514H115.349L116.415 0.636363H144.256L143.492 5.19957L121.084 30.6612H139.319L138.254 37H110.413Z" fill="#112FCD"/>
<path d="M144.153 37L150.19 0.636363H164.75C167.425 0.636363 169.591 1.03291 171.249 1.82599C172.918 2.61908 174.084 3.71993 174.746 5.12855C175.409 6.52533 175.587 8.13518 175.279 9.9581C175.031 11.3786 174.527 12.6214 173.77 13.6868C173.024 14.7521 172.101 15.6281 171 16.3146C169.899 17.0012 168.704 17.4865 167.413 17.7706L167.342 18.1257C168.715 18.1849 169.952 18.5755 171.053 19.2976C172.154 20.0078 172.977 21.014 173.521 22.3161C174.066 23.6181 174.19 25.1629 173.894 26.9503C173.575 28.8797 172.811 30.602 171.604 32.1172C170.396 33.6205 168.786 34.8101 166.774 35.6861C164.774 36.562 162.412 37 159.69 37H144.153ZM152.907 30.7145H159.175C161.305 30.7145 162.933 30.3002 164.058 29.4716C165.182 28.643 165.857 27.5481 166.082 26.1868C166.236 25.1806 166.135 24.2929 165.78 23.5234C165.437 22.754 164.851 22.1503 164.022 21.7124C163.205 21.2744 162.17 21.0554 160.915 21.0554H154.487L152.907 30.7145ZM155.375 15.853H161.075C162.116 15.853 163.081 15.6695 163.969 15.3026C164.868 14.9238 165.608 14.3911 166.188 13.7045C166.78 13.0062 167.153 12.1835 167.307 11.2365C167.52 9.91075 167.224 8.85133 166.419 8.05824C165.626 7.25331 164.383 6.85085 162.69 6.85085H156.866L155.375 15.853ZM183.478 37H175.239L193.829 0.636363H203.737L210.236 37H201.997L197.576 8.94602H197.292L183.478 37ZM185.36 22.7067H204.82L203.79 28.7081H184.33L185.36 22.7067ZM214.808 0.636363H223.419L229.119 16.2969H229.509L240.358 0.636363H248.97L231.818 24.1449L229.669 37H222.034L224.183 24.1449L214.808 0.636363Z" fill="#2C5FAB"/>
</svg>
