<svg width="477" height="70" viewBox="0 0 477 70" fill="none" xmlns="http://www.w3.org/2000/svg">
<path d="M8.42046 70L0.0340912 0.181816H16.1591L19.7045 48.6932H20.2841L41.0455 0.181816H54.8523L59.5568 48.7955H60.1705L79.7386 0.181816H95.8636L64.2955 70H49.9091L44.25 24.3523H43.7045L22.8068 70H8.42046ZM97.1761 70H81.358L117.051 0.181816H136.074L148.551 70H132.733L124.244 16.1364H123.699L97.1761 70ZM100.79 42.5568H138.153L136.176 54.0795H98.8125L100.79 42.5568ZM156.955 70L168.545 0.181816H183.307L173.761 57.8295H203.693L201.648 70H156.955Z" fill="#60874E" fill-opacity="0.85"/>
<path d="M210.673 70L212.173 61.2386L255.162 12.3523H220.151L222.196 0.181816H275.651L274.185 8.94318L231.162 57.8295H266.173L264.128 70H210.673Z" fill="#112FCD"/>
<path d="M275.455 70L287.045 0.181816H315C320.136 0.181816 324.295 0.94318 327.477 2.46591C330.682 3.98864 332.92 6.10227 334.193 8.80682C335.466 11.4886 335.807 14.5795 335.216 18.0795C334.739 20.8068 333.773 23.1932 332.318 25.2386C330.886 27.2841 329.114 28.9659 327 30.2841C324.886 31.6023 322.591 32.5341 320.114 33.0795L319.977 33.7614C322.614 33.875 324.989 34.625 327.102 36.0114C329.216 37.375 330.795 39.3068 331.841 41.8068C332.886 44.3068 333.125 47.2727 332.557 50.7045C331.943 54.4091 330.477 57.7159 328.159 60.625C325.841 63.5114 322.75 65.7955 318.886 67.4773C315.045 69.1591 310.511 70 305.284 70H275.455ZM292.261 57.9318H304.295C308.386 57.9318 311.511 57.1364 313.67 55.5455C315.83 53.9545 317.125 51.8523 317.557 49.2386C317.852 47.3068 317.659 45.6023 316.977 44.125C316.318 42.6477 315.193 41.4886 313.602 40.6477C312.034 39.8068 310.045 39.3864 307.636 39.3864H295.295L292.261 57.9318ZM297 29.3977H307.943C309.943 29.3977 311.795 29.0455 313.5 28.3409C315.227 27.6136 316.648 26.5909 317.761 25.2727C318.898 23.9318 319.614 22.3523 319.909 20.5341C320.318 17.9886 319.75 15.9545 318.205 14.4318C316.682 12.8864 314.295 12.1136 311.045 12.1136H299.864L297 29.3977ZM350.957 70H335.139L370.832 0.181816H389.855L402.332 70H386.514L378.026 16.1364H377.48L350.957 70ZM354.571 42.5568H391.935L389.957 54.0795H352.594L354.571 42.5568ZM411.111 0.181816H427.645L438.588 30.25H439.338L460.168 0.181816H476.702L443.77 45.3182L439.645 70H424.986L429.111 45.3182L411.111 0.181816Z" fill="#2C5FAB"/>
</svg>
