<svg width="636" height="94" viewBox="0 0 636 94" fill="none" xmlns="http://www.w3.org/2000/svg">
<path d="M11.2273 94L0.045455 0.909088H21.5455L26.2727 65.5909H27.0455L54.7273 0.909088H73.1364L79.4091 65.7273H80.2273L106.318 0.909088H127.818L85.7273 94H66.5455L59 33.1364H58.2727L30.4091 94H11.2273ZM129.568 94H108.477L156.068 0.909088H181.432L198.068 94H176.977L165.659 22.1818H164.932L129.568 94ZM134.386 57.4091H184.205L181.568 72.7727H131.75L134.386 57.4091ZM209.273 94L224.727 0.909088H244.409L231.682 77.7727H271.591L268.864 94H209.273Z" fill="#60874E" fill-opacity="0.85"/>
<path d="M280.898 94L282.898 82.3182L340.216 17.1364H293.534L296.261 0.909088H367.534L365.58 12.5909L308.216 77.7727H354.898L352.17 94H280.898Z" fill="#112FCD"/>
<path d="M367.273 94L382.727 0.909088H420C426.848 0.909088 432.394 1.92424 436.636 3.95454C440.909 5.98485 443.894 8.80303 445.591 12.4091C447.288 15.9848 447.742 20.1061 446.955 24.7727C446.318 28.4091 445.03 31.5909 443.091 34.3182C441.182 37.0455 438.818 39.2879 436 41.0455C433.182 42.803 430.121 44.0455 426.818 44.7727L426.636 45.6818C430.152 45.8333 433.318 46.8333 436.136 48.6818C438.955 50.5 441.061 53.0758 442.455 56.4091C443.848 59.7424 444.167 63.697 443.409 68.2727C442.591 73.2121 440.636 77.6212 437.545 81.5C434.455 85.3485 430.333 88.3939 425.182 90.6364C420.061 92.8788 414.015 94 407.045 94H367.273ZM389.682 77.9091H405.727C411.182 77.9091 415.348 76.8485 418.227 74.7273C421.106 72.6061 422.833 69.803 423.409 66.3182C423.803 63.7424 423.545 61.4697 422.636 59.5C421.758 57.5303 420.258 55.9848 418.136 54.8636C416.045 53.7424 413.394 53.1818 410.182 53.1818H393.727L389.682 77.9091ZM396 39.8636H410.591C413.258 39.8636 415.727 39.3939 418 38.4545C420.303 37.4848 422.197 36.1212 423.682 34.3636C425.197 32.5758 426.152 30.4697 426.545 28.0455C427.091 24.6515 426.333 21.9394 424.273 19.9091C422.242 17.8485 419.061 16.8182 414.727 16.8182H399.818L396 39.8636ZM467.943 94H446.852L494.443 0.909088H519.807L536.443 94H515.352L504.034 22.1818H503.307L467.943 94ZM472.761 57.4091H522.58L519.943 72.7727H470.125L472.761 57.4091ZM548.148 0.909088H570.193L584.784 41H585.784L613.557 0.909088H635.602L591.693 61.0909L586.193 94H566.648L572.148 61.0909L548.148 0.909088Z" fill="#2C5FAB"/>
</svg>
